<svg xmlns="http://www.w3.org/2000/svg" xmlns:xlink="http://www.w3.org/1999/xlink" width="941" zoomAndPan="magnify" viewBox="0 0 705.75 202.499994" height="270" preserveAspectRatio="xMidYMid meet" version="1.0"><defs><g/><clipPath id="b9139bf37c"><path d="M 0.746094 0 L 704.757812 0 L 704.757812 202 L 0.746094 202 Z M 0.746094 0 " clip-rule="nonzero"/></clipPath><clipPath id="80c11d37f5"><path d="M 28 88 L 249 88 L 249 180.621094 L 28 180.621094 Z M 28 88 " clip-rule="nonzero"/></clipPath><clipPath id="1f7758d114"><path d="M 167 4.804688 L 212 4.804688 L 212 99 L 167 99 Z M 167 4.804688 " clip-rule="nonzero"/></clipPath><clipPath id="27bc95f0d7"><path d="M 0.746094 39 L 266.339844 39 L 266.339844 157 L 0.746094 157 Z M 0.746094 39 " clip-rule="nonzero"/></clipPath><clipPath id="89b5badcf1"><rect x="0" width="387" y="0" height="92"/></clipPath></defs><g clip-path="url(#b9139bf37c)"><path fill="#ffffff" d="M 0.746094 0 L 704.757812 0 L 704.757812 202 L 0.746094 202 Z M 0.746094 0 " fill-opacity="1" fill-rule="nonzero"/></g><g clip-path="url(#80c11d37f5)"><path fill="#ffffff" d="M 211.277344 172.128906 L 211.277344 88.980469 C 198.765625 97.253906 184.199219 105.929688 167.636719 114.304688 C 167.730469 137.199219 167.847656 157.695312 167.902344 166.871094 C 163.160156 166.507812 158.527344 166.230469 154 166.023438 L 154 127.484375 L 153.945312 127.507812 L 153.953125 120.925781 C 140.578125 127.121094 126.066406 133.035156 110.445312 138.363281 L 110.425781 144.835938 L 110.265625 144.898438 L 110.34375 166.152344 C 105.753906 166.402344 101.34375 166.722656 97.109375 167.09375 L 97.109375 149.539062 L 96.910156 149.59375 L 96.964844 142.71875 C 83.449219 146.855469 69.175781 150.527344 54.148438 153.554688 L 54.148438 161.152344 L 53.785156 173.597656 C 37.464844 177.195312 28.734375 180.632812 28.734375 180.632812 C 141.230469 166.960938 248.304688 179.601562 248.304688 179.601562 C 235.496094 176.546875 223.148438 174.082031 211.28125 172.121094 Z M 211.277344 172.128906 " fill-opacity="1" fill-rule="nonzero"/></g><path fill="#ffffff" d="M 97.492188 78.339844 L 54.144531 93.433594 L 54.144531 141.109375 C 67.011719 137.46875 81.546875 133 97.089844 127.609375 L 97.496094 78.339844 Z M 97.492188 78.339844 " fill-opacity="1" fill-rule="nonzero"/><path fill="#ffffff" d="M 153.996094 44.667969 L 110.652344 60.148438 L 110.484375 122.820312 C 124.496094 117.652344 139.132812 111.773438 153.960938 105.105469 L 153.996094 44.671875 Z M 153.996094 44.667969 " fill-opacity="1" fill-rule="nonzero"/><g clip-path="url(#1f7758d114)"><path fill="#ffffff" d="M 211.277344 75.300781 L 211.277344 4.804688 L 167.933594 19.125 C 167.433594 18.625 167.449219 59.277344 167.582031 98.773438 C 182.234375 91.746094 196.941406 83.9375 211.28125 75.300781 Z M 211.277344 75.300781 " fill-opacity="1" fill-rule="nonzero"/></g><g clip-path="url(#27bc95f0d7)"><path fill="#ff751f" d="M 0.898438 156.648438 C 0.898438 156.648438 163.0625 128.007812 266.011719 39.765625 C 266.011719 39.765625 171.960938 142.328125 0.898438 156.648438 Z M 0.898438 156.648438 " fill-opacity="1" fill-rule="nonzero"/></g><g transform="matrix(1, 0, 0, 1, 286, 22)"><g clip-path="url(#89b5badcf1)"><g fill="#ffffff" fill-opacity="1"><g transform="translate(0.924023, 69.114762)"><g><path d="M 5.390625 0 L 5.390625 -53.65625 L 18.953125 -53.65625 L 18.953125 0 Z M 37.46875 0 L 22.53125 -22.59375 L 37.25 -22.59375 L 53.078125 0 Z M 15.53125 -16.328125 L 15.53125 -26.75 L 28.28125 -26.75 C 29.882812 -26.75 31.269531 -27.066406 32.4375 -27.703125 C 33.601562 -28.335938 34.515625 -29.238281 35.171875 -30.40625 C 35.828125 -31.570312 36.15625 -32.929688 36.15625 -34.484375 C 36.15625 -36.085938 35.828125 -37.472656 35.171875 -38.640625 C 34.515625 -39.804688 33.601562 -40.703125 32.4375 -41.328125 C 31.269531 -41.960938 29.882812 -42.28125 28.28125 -42.28125 L 15.53125 -42.28125 L 15.53125 -53.65625 L 27.484375 -53.65625 C 32.097656 -53.65625 36.082031 -52.960938 39.4375 -51.578125 C 42.789062 -50.191406 45.367188 -48.148438 47.171875 -45.453125 C 48.972656 -42.753906 49.875 -39.414062 49.875 -35.4375 L 49.875 -34.265625 C 49.875 -30.273438 48.960938 -26.957031 47.140625 -24.3125 C 45.316406 -21.664062 42.738281 -19.671875 39.40625 -18.328125 C 36.070312 -16.992188 32.097656 -16.328125 27.484375 -16.328125 Z M 15.53125 -16.328125 "/></g></g><g transform="translate(54.870129, 69.114762)"><g><path d="M 5.390625 0 L 5.390625 -53.21875 L 18.515625 -53.21875 L 18.515625 0 Z M 17.0625 0 L 17.0625 -11.078125 L 39.515625 -11.078125 L 39.515625 0 Z M 17.0625 -21.5 L 17.0625 -32.59375 L 37.984375 -32.59375 L 37.984375 -21.5 Z M 17.0625 -42.140625 L 17.0625 -53.21875 L 39.078125 -53.21875 L 39.078125 -42.140625 Z M 17.0625 -42.140625 "/></g></g></g><g fill="#ffffff" fill-opacity="1"><g transform="translate(98.027006, 69.114762)"><g><path d="M 5.390625 0 L 5.390625 -53.21875 L 18.953125 -53.21875 L 18.953125 0 Z M 17.5 -20.625 L 17.5 -31.71875 L 37.25 -31.71875 L 37.25 -20.625 Z M 17.5 -42.140625 L 17.5 -53.21875 L 38.0625 -53.21875 L 38.0625 -42.140625 Z M 17.5 -42.140625 "/></g></g></g><g fill="#ffffff" fill-opacity="1"><g transform="translate(138.705287, 69.114762)"><g><path d="M 31.5 1.453125 C 26.632812 1.453125 22.40625 0.613281 18.8125 -1.0625 C 15.21875 -2.738281 12.226562 -4.945312 9.84375 -7.6875 C 7.457031 -10.4375 5.679688 -13.414062 4.515625 -16.625 C 3.347656 -19.832031 2.765625 -22.941406 2.765625 -25.953125 L 2.765625 -27.5625 C 2.765625 -30.914062 3.375 -34.207031 4.59375 -37.4375 C 5.8125 -40.664062 7.632812 -43.59375 10.0625 -46.21875 C 12.488281 -48.84375 15.488281 -50.929688 19.0625 -52.484375 C 22.632812 -54.046875 26.78125 -54.828125 31.5 -54.828125 C 36.164062 -54.828125 40.285156 -54.046875 43.859375 -52.484375 C 47.429688 -50.929688 50.429688 -48.84375 52.859375 -46.21875 C 55.285156 -43.59375 57.117188 -40.664062 58.359375 -37.4375 C 59.597656 -34.207031 60.21875 -30.914062 60.21875 -27.5625 L 60.21875 -25.953125 C 60.21875 -22.941406 59.617188 -19.832031 58.421875 -16.625 C 57.234375 -13.414062 55.445312 -10.4375 53.0625 -7.6875 C 50.6875 -4.945312 47.703125 -2.738281 44.109375 -1.0625 C 40.515625 0.613281 36.3125 1.453125 31.5 1.453125 Z M 31.5 -11.234375 C 33.832031 -11.234375 35.921875 -11.617188 37.765625 -12.390625 C 39.609375 -13.171875 41.1875 -14.265625 42.5 -15.671875 C 43.8125 -17.085938 44.804688 -18.726562 45.484375 -20.59375 C 46.171875 -22.46875 46.515625 -24.5 46.515625 -26.6875 C 46.515625 -29.019531 46.160156 -31.132812 45.453125 -33.03125 C 44.753906 -34.925781 43.75 -36.550781 42.4375 -37.90625 C 41.125 -39.269531 39.539062 -40.316406 37.6875 -41.046875 C 35.84375 -41.773438 33.78125 -42.140625 31.5 -42.140625 C 29.164062 -42.140625 27.070312 -41.773438 25.21875 -41.046875 C 23.375 -40.316406 21.796875 -39.269531 20.484375 -37.90625 C 19.171875 -36.550781 18.175781 -34.925781 17.5 -33.03125 C 16.820312 -31.132812 16.484375 -29.019531 16.484375 -26.6875 C 16.484375 -24.5 16.820312 -22.46875 17.5 -20.59375 C 18.175781 -18.726562 19.171875 -17.085938 20.484375 -15.671875 C 21.796875 -14.265625 23.375 -13.171875 25.21875 -12.390625 C 27.070312 -11.617188 29.164062 -11.234375 31.5 -11.234375 Z M 31.5 -11.234375 "/></g></g><g transform="translate(201.69101, 69.114762)"><g><path d="M 5.390625 0 L 5.390625 -53.65625 L 18.953125 -53.65625 L 18.953125 0 Z M 37.46875 0 L 22.53125 -22.59375 L 37.25 -22.59375 L 53.078125 0 Z M 15.53125 -16.328125 L 15.53125 -26.75 L 28.28125 -26.75 C 29.882812 -26.75 31.269531 -27.066406 32.4375 -27.703125 C 33.601562 -28.335938 34.515625 -29.238281 35.171875 -30.40625 C 35.828125 -31.570312 36.15625 -32.929688 36.15625 -34.484375 C 36.15625 -36.085938 35.828125 -37.472656 35.171875 -38.640625 C 34.515625 -39.804688 33.601562 -40.703125 32.4375 -41.328125 C 31.269531 -41.960938 29.882812 -42.28125 28.28125 -42.28125 L 15.53125 -42.28125 L 15.53125 -53.65625 L 27.484375 -53.65625 C 32.097656 -53.65625 36.082031 -52.960938 39.4375 -51.578125 C 42.789062 -50.191406 45.367188 -48.148438 47.171875 -45.453125 C 48.972656 -42.753906 49.875 -39.414062 49.875 -35.4375 L 49.875 -34.265625 C 49.875 -30.273438 48.960938 -26.957031 47.140625 -24.3125 C 45.316406 -21.664062 42.738281 -19.671875 39.40625 -18.328125 C 36.070312 -16.992188 32.097656 -16.328125 27.484375 -16.328125 Z M 15.53125 -16.328125 "/></g></g><g transform="translate(255.637115, 69.114762)"><g><path d="M 5.390625 0 L 5.390625 -53.21875 L 24.203125 -53.21875 L 35.140625 -25.15625 L 36.59375 -25.15625 L 47.46875 -53.21875 L 66.640625 -53.21875 L 66.640625 0 L 53.21875 0 L 53.21875 -45.421875 L 55.328125 -45.28125 L 41.625 -10.71875 L 29.3125 -10.71875 L 15.53125 -45.28125 L 17.796875 -45.421875 L 17.796875 0 Z M 5.390625 0 "/></g></g></g><g fill="#ffffff" fill-opacity="1"><g transform="translate(327.662447, 69.114762)"><g><path d="M 0.578125 0 L 17.640625 -53.21875 L 39.375 -53.21875 L 57.015625 0 L 43.015625 0 L 29.3125 -43.75 L 33.171875 -42.28125 L 23.546875 -42.28125 L 27.484375 -43.75 L 14.140625 0 Z M 14.515625 -12.328125 L 18.59375 -23.40625 L 38.78125 -23.40625 L 42.875 -12.328125 Z M 14.515625 -12.328125 "/></g></g></g></g></g><g fill="#ff751f" fill-opacity="1"><g transform="translate(286.50687, 158.287886)"><g><path d="M 5.46875 0 L 5.46875 -53.9375 L 18.765625 -53.9375 L 18.765625 0 Z M 17.296875 0 L 17.296875 -11.234375 L 40.046875 -11.234375 L 40.046875 0 Z M 17.296875 -21.796875 L 17.296875 -33.03125 L 38.5 -33.03125 L 38.5 -21.796875 Z M 17.296875 -42.703125 L 17.296875 -53.9375 L 39.609375 -53.9375 L 39.609375 -42.703125 Z M 17.296875 -42.703125 "/></g></g></g><g fill="#ff751f" fill-opacity="1"><g transform="translate(336.975472, 158.287886)"><g><path d="M 5.46875 0 L 5.46875 -53.9375 L 24.53125 -53.9375 L 35.609375 -25.5 L 37.09375 -25.5 L 48.109375 -53.9375 L 67.53125 -53.9375 L 67.53125 0 L 53.9375 0 L 53.9375 -46.03125 L 56.078125 -45.890625 L 42.1875 -10.859375 L 29.703125 -10.859375 L 15.734375 -45.890625 L 18.03125 -46.03125 L 18.03125 0 Z M 5.46875 0 "/></g></g></g><g fill="#ff751f" fill-opacity="1"><g transform="translate(422.096096, 158.287886)"><g><path d="M 0.59375 0 L 17.875 -53.9375 L 39.90625 -53.9375 L 57.78125 0 L 43.59375 0 L 29.703125 -44.328125 L 33.625 -42.859375 L 23.859375 -42.859375 L 27.859375 -44.328125 L 14.328125 0 Z M 14.703125 -12.484375 L 18.84375 -23.71875 L 39.3125 -23.71875 L 43.453125 -12.484375 Z M 14.703125 -12.484375 "/></g></g></g><g fill="#ff751f" fill-opacity="1"><g transform="translate(484.756723, 158.287886)"><g><path d="M 30.671875 1.484375 C 25.785156 1.484375 21.59375 0.632812 18.09375 -1.0625 C 14.601562 -2.769531 11.722656 -5.015625 9.453125 -7.796875 C 7.191406 -10.578125 5.519531 -13.59375 4.4375 -16.84375 C 3.351562 -20.09375 2.8125 -23.25 2.8125 -26.3125 L 2.8125 -27.9375 C 2.8125 -31.332031 3.363281 -34.664062 4.46875 -37.9375 C 5.582031 -41.21875 7.28125 -44.1875 9.5625 -46.84375 C 11.851562 -49.507812 14.722656 -51.628906 18.171875 -53.203125 C 21.617188 -54.773438 25.660156 -55.5625 30.296875 -55.5625 C 35.222656 -55.5625 39.59375 -54.640625 43.40625 -52.796875 C 47.226562 -50.953125 50.296875 -48.363281 52.609375 -45.03125 C 54.921875 -41.707031 56.273438 -37.851562 56.671875 -33.46875 L 42.9375 -33.46875 C 42.582031 -35.34375 41.835938 -36.96875 40.703125 -38.34375 C 39.578125 -39.726562 38.125 -40.800781 36.34375 -41.5625 C 34.570312 -42.320312 32.554688 -42.703125 30.296875 -42.703125 C 28.179688 -42.703125 26.269531 -42.332031 24.5625 -41.59375 C 22.863281 -40.851562 21.4375 -39.804688 20.28125 -38.453125 C 19.125 -37.097656 18.238281 -35.460938 17.625 -33.546875 C 17.007812 -31.628906 16.703125 -29.460938 16.703125 -27.046875 C 16.703125 -24.628906 17.007812 -22.457031 17.625 -20.53125 C 18.238281 -18.613281 19.148438 -16.960938 20.359375 -15.578125 C 21.566406 -14.203125 23.03125 -13.15625 24.75 -12.4375 C 26.476562 -11.726562 28.453125 -11.375 30.671875 -11.375 C 34.117188 -11.375 37.035156 -12.210938 39.421875 -13.890625 C 41.804688 -15.566406 43.25 -17.804688 43.75 -20.609375 L 57.484375 -20.609375 C 57.046875 -16.578125 55.691406 -12.882812 53.421875 -9.53125 C 51.160156 -6.175781 48.109375 -3.5 44.265625 -1.5 C 40.421875 0.488281 35.890625 1.484375 30.671875 1.484375 Z M 30.234375 21.125 C 28.898438 21.125 27.628906 21.023438 26.421875 20.828125 C 25.210938 20.640625 24.265625 20.421875 23.578125 20.171875 L 23.578125 11.75 C 24.316406 12 25.191406 12.21875 26.203125 12.40625 C 27.210938 12.601562 28.332031 12.703125 29.5625 12.703125 C 30.988281 12.703125 32.046875 12.554688 32.734375 12.265625 C 33.429688 11.972656 33.78125 11.503906 33.78125 10.859375 C 33.78125 10.367188 33.546875 10.007812 33.078125 9.78125 C 32.609375 9.5625 31.832031 9.453125 30.75 9.453125 L 26.453125 9.453125 L 26.453125 -1.03125 L 35.03125 -1.03125 L 35.03125 6.421875 L 30.078125 3.109375 L 31.046875 3.109375 C 34.640625 3.109375 37.46875 3.769531 39.53125 5.09375 C 41.601562 6.425781 42.640625 8.472656 42.640625 11.234375 C 42.640625 13.992188 41.578125 16.332031 39.453125 18.25 C 37.335938 20.164062 34.265625 21.125 30.234375 21.125 Z M 30.234375 21.125 "/></g></g></g><g fill="#ff751f" fill-opacity="1"><g transform="translate(550.151437, 158.287886)"><g><path d="M 0.59375 0 L 17.875 -53.9375 L 39.90625 -53.9375 L 57.78125 0 L 43.59375 0 L 29.703125 -44.328125 L 33.625 -42.859375 L 23.859375 -42.859375 L 27.859375 -44.328125 L 14.328125 0 Z M 14.703125 -12.484375 L 18.84375 -23.71875 L 39.3125 -23.71875 L 43.453125 -12.484375 Z M 35.546875 -57.40625 C 33.921875 -57.40625 32.539062 -57.613281 31.40625 -58.03125 C 30.269531 -58.457031 29.242188 -58.941406 28.328125 -59.484375 C 27.421875 -60.023438 26.488281 -60.503906 25.53125 -60.921875 C 24.570312 -61.335938 23.453125 -61.546875 22.171875 -61.546875 C 20.441406 -61.546875 19 -61.25 17.84375 -60.65625 C 16.6875 -60.070312 15.765625 -59.359375 15.078125 -58.515625 L 13.15625 -67.6875 C 14.039062 -68.71875 15.207031 -69.601562 16.65625 -70.34375 C 18.113281 -71.082031 19.953125 -71.453125 22.171875 -71.453125 C 23.796875 -71.453125 25.175781 -71.242188 26.3125 -70.828125 C 27.445312 -70.410156 28.46875 -69.929688 29.375 -69.390625 C 30.289062 -68.847656 31.226562 -68.363281 32.1875 -67.9375 C 33.144531 -67.519531 34.265625 -67.3125 35.546875 -67.3125 C 37.265625 -67.3125 38.710938 -67.617188 39.890625 -68.234375 C 41.078125 -68.847656 42.019531 -69.550781 42.71875 -70.34375 L 44.640625 -61.1875 C 43.742188 -60.144531 42.554688 -59.253906 41.078125 -58.515625 C 39.609375 -57.773438 37.765625 -57.40625 35.546875 -57.40625 Z M 35.546875 -57.40625 "/></g></g></g><g fill="#ff751f" fill-opacity="1"><g transform="translate(612.812064, 158.287886)"><g><path d="M 31.921875 1.484375 C 26.992188 1.484375 22.707031 0.632812 19.0625 -1.0625 C 15.414062 -2.769531 12.382812 -5.015625 9.96875 -7.796875 C 7.5625 -10.578125 5.765625 -13.59375 4.578125 -16.84375 C 3.398438 -20.09375 2.8125 -23.25 2.8125 -26.3125 L 2.8125 -27.9375 C 2.8125 -31.332031 3.425781 -34.664062 4.65625 -37.9375 C 5.882812 -41.21875 7.726562 -44.1875 10.1875 -46.84375 C 12.65625 -49.507812 15.695312 -51.628906 19.3125 -53.203125 C 22.9375 -54.773438 27.140625 -55.5625 31.921875 -55.5625 C 36.648438 -55.5625 40.820312 -54.773438 44.4375 -53.203125 C 48.0625 -51.628906 51.101562 -49.507812 53.5625 -46.84375 C 56.03125 -44.1875 57.890625 -41.21875 59.140625 -37.9375 C 60.398438 -34.664062 61.03125 -31.332031 61.03125 -27.9375 L 61.03125 -26.3125 C 61.03125 -23.25 60.425781 -20.09375 59.21875 -16.84375 C 58.007812 -13.59375 56.195312 -10.578125 53.78125 -7.796875 C 51.375 -5.015625 48.347656 -2.769531 44.703125 -1.0625 C 41.054688 0.632812 36.796875 1.484375 31.921875 1.484375 Z M 31.921875 -11.375 C 34.285156 -11.375 36.398438 -11.769531 38.265625 -12.5625 C 40.140625 -13.351562 41.742188 -14.460938 43.078125 -15.890625 C 44.410156 -17.316406 45.421875 -18.976562 46.109375 -20.875 C 46.796875 -22.769531 47.140625 -24.828125 47.140625 -27.046875 C 47.140625 -29.410156 46.78125 -31.550781 46.0625 -33.46875 C 45.351562 -35.394531 44.332031 -37.046875 43 -38.421875 C 41.675781 -39.796875 40.078125 -40.851562 38.203125 -41.59375 C 36.328125 -42.332031 34.234375 -42.703125 31.921875 -42.703125 C 29.554688 -42.703125 27.4375 -42.332031 25.5625 -41.59375 C 23.695312 -40.851562 22.097656 -39.796875 20.765625 -38.421875 C 19.429688 -37.046875 18.421875 -35.394531 17.734375 -33.46875 C 17.046875 -31.550781 16.703125 -29.410156 16.703125 -27.046875 C 16.703125 -24.828125 17.046875 -22.769531 17.734375 -20.875 C 18.421875 -18.976562 19.429688 -17.316406 20.765625 -15.890625 C 22.097656 -14.460938 23.695312 -13.351562 25.5625 -12.5625 C 27.4375 -11.769531 29.554688 -11.375 31.921875 -11.375 Z M 31.921875 -11.375 "/></g></g></g></svg>